<?xml version="1.0" standalone="no"?><!DOCTYPE svg PUBLIC "-//W3C//DTD SVG 1.1//EN" "http://www.w3.org/Graphics/SVG/1.1/DTD/svg11.dtd"><svg t="1600413549733" class="icon" viewBox="0 0 1024 1024" version="1.1" xmlns="http://www.w3.org/2000/svg" p-id="5565" xmlns:xlink="http://www.w3.org/1999/xlink" width="200" height="200"><defs><style type="text/css"></style></defs><path d="M926.48448 781.15328l-272.97792-423.71072V160.03072h25.40544V92.16H350.1824v67.87072h25.43104v197.41184L102.62016 781.1584A97.792 97.792 0 0 0 184.9344 931.84h659.2512a97.76128 97.76128 0 0 0 82.29888-150.68672zM870.46656 848.384a29.33248 29.33248 0 0 1-26.28096 15.58528H184.9344a29.91104 29.91104 0 0 1-25.18016-46.08l283.8016-440.49408V160.03072h142.00832V377.3952l283.81184 440.48896a29.27104 29.27104 0 0 1 1.09056 30.49984z" fill="#5288F5" p-id="5566"></path><path d="M652.288 572.63104H376.832v-68.4544h275.456v68.4544z" fill="#F79C42" p-id="5567"></path></svg>